<svg width="200" height="60" xmlns="http://www.w3.org/2000/svg">
 <g id="Layer_1">
  <title>Layer 1</title>
  <g stroke="null">
   <g stroke="null">
    <title stroke="null">Layer 1</title>
    <g stroke="null" id="svg_3">
     <path stroke="null" fill="black" d="m10.63671,30.72164l0,22.50614c0,1.13006 -0.59744,2.04583 -1.33487,2.04583l-5.33888,0c-0.73744,0 -1.33489,-0.91576 -1.33489,-2.04583l0,-40.92009c0,-0.84757 0.34086,-1.60717 0.85726,-1.91014c0,0 11.61187,-6.82152 15.06167,-8.84805c0.9226,-0.5421 1.94354,-0.5421 2.86614,0c3.44972,2.02653 15.06196,8.84805 15.06196,8.84805c0.68776,0.40411 1.03214,1.588 0.7686,2.64227c-0.26375,1.05476 -1.03602,1.58263 -1.72378,1.1785c0,0 -11.61224,-6.82152 -15.06206,-8.84805c-0.30752,-0.1807 -0.64772,-0.1807 -0.95526,0l-14.20507,8.34472l0,37.46665l2.66976,0l0,-30.68981c0,-1.12989 0.59744,-2.04616 1.33456,-2.04616l21.35643,0c0.73716,0 1.33489,0.91627 1.33489,2.04616l0,30.68981l2.66957,0l0,-30.68981c0,-1.1294 0.59793,-2.04616 1.33468,-2.04616c0.73655,0 1.33468,0.91679 1.33468,2.04616l0,32.73595c0,1.13006 -0.59753,2.04583 -1.33468,2.04583l-5.33914,0c-0.73716,0 -1.33489,-0.91576 -1.33489,-2.04583l0,-22.50614l-18.68667,0zm18.68667,-4.09184l0,-4.09184l-18.68667,0l0,4.09184l18.68667,0z" clip-rule="evenodd" fill-rule="evenodd" id="svg_8"/>
     <path stroke="null" fill="#ACD9B2" d="m99.7999,51.27748c-0.22456,0.41394 -0.51036,0.67664 -0.8574,0.78807c-0.34704,0.11144 -0.69408,0.11144 -1.04113,0c-0.34704,-0.11144 -0.63284,-0.26269 -0.8574,-0.45374c-0.34704,-0.31841 -0.69408,-0.78807 -1.04113,-1.40899c-0.34704,-0.62092 -0.62774,-1.45676 -0.84209,-2.50752c-0.21435,-1.05076 -0.32152,-2.40403 -0.32152,-4.05979c0,-0.5413 -0.06124,-1.04281 -0.18373,-1.50452c-0.12249,-0.46171 -0.29601,-0.85971 -0.52056,-1.19407c-0.22456,-0.33433 -0.51036,-0.58907 -0.8574,-0.7642l-0.27171,-0.11495c-0.28335,-0.0984 -0.601,-0.14775 -0.95314,-0.14775l-5.7262,0.00318l0,9.2627c0,0.82789 -0.1429,1.52043 -0.4287,2.07765c-0.2858,0.55723 -0.68388,0.83584 -1.19423,0.83584c-0.5716,0 -1.08196,-0.27861 -1.53107,-0.83584c-0.44911,-0.55723 -0.67367,-1.24978 -0.67367,-2.07765l0,-27.60665c0,-0.82789 0.17862,-1.52043 0.53587,-2.07765c0.35725,-0.55723 0.80126,-0.83584 1.33203,-0.83584l8.81896,0c1.06154,0 2.05674,0.43782 2.98558,1.31348c0.92885,0.87564 1.67907,2.08562 2.25067,3.62994c0.5716,1.54432 0.8574,3.31949 0.8574,5.3255c0,1.20999 -0.15821,2.38811 -0.47463,3.53441c-0.31642,1.1463 -0.74512,2.18114 -1.2861,3.10456l-0.33255,0.5292c-0.22701,0.33624 -0.46463,0.63937 -0.71287,0.90939l-0.16617,0.1694l0.05961,0.05796c0.29641,0.3286 0.55792,0.68874 0.78452,1.08039c0.37766,0.65276 0.67367,1.35327 0.88802,2.10155c0.21435,0.74828 0.34194,1.55227 0.38277,2.41201c0.08166,0.79604 0.1378,1.49655 0.16842,2.10155c0.03062,0.60499 0.09186,1.11445 0.18373,1.5284c0.09186,0.41394 0.27049,0.73235 0.53587,0.95525c0.44911,0.41394 0.72981,1.01097 0.84209,1.79109c0.11228,0.78012 -0.0051,1.47268 -0.35215,2.07765zm-6.76732,-27.12902l-6.70608,0l0,10.84207l6.70608,0c0.36746,0 0.72471,-0.26269 1.07175,-0.78807c0.34704,-0.52538 0.63284,-1.24181 0.8574,-2.14932c0.22456,-0.90748 0.33684,-1.90252 0.33684,-2.98515c0,-1.40104 -0.23987,-2.57121 -0.7196,-3.51054c-0.47973,-0.93933 -0.99519,-1.40899 -1.54638,-1.40899zm19.68954,27.94098c1.98018,0 3.64905,-0.74828 5.00659,-2.24483c1.35755,-1.49655 2.39357,-3.51054 3.10807,-6.04193c0.7145,-2.53141 1.07175,-5.34142 1.07175,-8.43006c0,-2.2926 -0.19904,-4.44986 -0.59712,-6.4718c-0.39808,-2.02193 -0.99009,-3.80507 -1.77604,-5.34939c-0.78595,-1.54432 -1.75052,-2.74634 -2.89372,-3.60605c-1.1432,-0.85971 -2.44971,-1.28958 -3.91954,-1.28958l-7.31851,0c-0.53077,0 -0.97478,0.27861 -1.33203,0.83584c-0.35725,0.55723 -0.53587,1.24978 -0.53587,2.07765l0,27.60665c0,0.82789 0.17862,1.52043 0.53587,2.07765c0.35725,0.55723 0.80126,0.83584 1.33203,0.83584l7.31851,0zm-0.30621,-27.94098l-5.05253,0l0,22.44831l5.05253,0c1.2861,0 2.33743,-0.51743 3.154,-1.55227c0.81657,-1.03486 1.41369,-2.40403 1.79135,-4.10756c0.37766,-1.70352 0.5665,-3.5583 0.5665,-5.56432c0,-1.49655 -0.10717,-2.92146 -0.32152,-4.27474c-0.21435,-1.35327 -0.54608,-2.54732 -0.99519,-3.58218c-0.44911,-1.03486 -1.02071,-1.85478 -1.7148,-2.45975c-0.69408,-0.60499 -1.52086,-0.90748 -2.48033,-0.90748l0,-0.00002z" clip-rule="evenodd" fill-rule="evenodd" id="svg_7"/>
     <path stroke="null" fill="black" d="m176.88411,51.19787c-0.38113,0.59449 -0.85474,0.89156 -1.42083,0.89156c-0.54445,0 -1.00173,-0.29709 -1.37184,-0.89156c-0.37011,-0.59449 -0.55527,-1.33322 -0.55527,-2.21618l0,-31.48494c0,-0.88305 0.19046,-1.62178 0.5716,-2.21618c0.38113,-0.59438 0.85474,-0.89156 1.42083,-0.89156c0.56609,0 1.02888,0.29718 1.38817,0.89156c0.35929,0.59438 0.53894,1.33311 0.53894,2.21618l0,31.48494c0,0.88296 -0.19046,1.62169 -0.5716,2.21618zm-31.71558,0.12736c-1.27385,0.84921 -2.6512,1.27366 -4.13184,1.27366c-1.52433,0 -2.89617,-0.29709 -4.11551,-0.89156c-1.21934,-0.59449 -2.38438,-1.63888 -3.49492,-3.13321c-0.28315,-0.37351 -0.50076,-0.79827 -0.65326,-1.27366c-0.15249,-0.47539 -0.22864,-0.95112 -0.22864,-1.42651c0,-0.78108 0.17965,-1.46886 0.53894,-2.06333c0.35929,-0.59449 0.81106,-0.89156 1.35551,-0.89156c0.4138,0 0.78391,0.2038 1.11054,0.61137c0.82739,1.05301 1.64947,1.85096 2.46604,2.39448c0.81657,0.54352 1.8236,0.81514 3.02131,0.81514c0.80575,0 1.54597,-0.19518 2.22107,-0.58587c0.6751,-0.39069 1.21934,-0.91703 1.63314,-1.57934c0.4138,-0.66231 0.62059,-1.41792 0.62059,-2.26713c0,-1.01894 -0.19598,-1.88503 -0.58793,-2.59828c-0.39195,-0.71326 -0.9907,-1.31601 -1.79645,-1.80861c-0.80575,-0.49258 -1.82912,-0.87468 -3.0703,-1.1463c-1.17586,-0.27162 -2.21025,-0.68778 -3.10297,-1.24819c-0.89272,-0.5604 -1.63865,-1.27366 -2.2374,-2.13974c-0.59875,-0.86609 -1.05072,-1.88503 -1.35551,-3.0568c-0.30478,-1.17177 -0.45728,-2.48789 -0.45728,-3.94835c0,-2.20768 0.3648,-4.0927 1.0942,-5.65505c0.7294,-1.56238 1.7148,-2.75111 2.95598,-3.56625c1.24119,-0.81514 2.61302,-1.22271 4.11551,-1.22271c1.41532,0 2.72734,0.33116 3.93587,0.99347c1.20852,0.66231 2.19392,1.50293 2.95598,2.52184c0.63141,0.78117 0.94722,1.68123 0.94722,2.70017c0,0.74723 -0.18516,1.42651 -0.55527,2.03786c-0.37011,0.61137 -0.80575,0.91703 -1.30651,0.91703c-0.32663,0 -0.62059,-0.15283 -0.8819,-0.45851c-0.34847,-0.47548 -0.81657,-0.92554 -1.4045,-1.35007c-0.58793,-0.42454 -1.20852,-0.78117 -1.86178,-1.06988c-0.65326,-0.28872 -1.26303,-0.43304 -1.82912,-0.43304c-0.9364,0 -1.72562,0.18681 -2.36805,0.5604c-0.64244,0.37359 -1.12687,0.88305 -1.45349,1.5284c-0.32663,0.64532 -0.48994,1.39253 -0.48994,2.24165c0,1.01894 0.19046,1.85955 0.5716,2.52184c0.38113,0.66231 0.93089,1.18874 1.64947,1.57934c0.71858,0.3906 1.57863,0.73873 2.58036,1.04441c1.30651,0.37359 2.45522,0.81514 3.44593,1.3246c0.9907,0.50946 1.81279,1.16318 2.46604,1.96144c0.65326,0.79827 1.1432,1.79999 1.46983,3.00585c0.32663,1.20584 0.48994,2.6747 0.48994,4.40687c0,2.20759 -0.39195,4.1098 -1.17586,5.70602c-0.78391,1.59622 -1.81279,2.81893 -3.08663,3.66814l0,-0.00002zm17.04998,0.63684c-0.70776,0.42445 -1.47534,0.63684 -2.30273,0.63684c-1.50249,0 -2.86351,-0.60275 -4.08285,-1.80861c-1.21934,-1.20584 -2.1829,-2.86988 -2.89066,-4.99276c-0.70776,-2.12289 -1.06154,-4.55972 -1.06154,-7.31083c0,-2.78518 0.35378,-5.23889 1.06154,-7.36178c0.70776,-2.12278 1.66029,-3.78702 2.85799,-4.99276c1.1977,-1.20575 2.52586,-1.80861 3.98486,-1.80861c0.9364,0 1.79645,0.22076 2.58036,0.66231c0.78391,0.44155 1.46431,1.00195 2.04142,1.68123l0.33051,0.40859c0.10493,0.13653 0.2072,0.27841 0.30642,0.42565l0,-0.07004c0,-0.88305 0.18516,-1.62178 0.55527,-2.21618c0.37011,-0.59438 0.83841,-0.89156 1.4045,-0.89156c0.56609,0 1.03439,0.28872 1.4045,0.86609c0.37011,0.57739 0.55527,1.3246 0.55527,2.24165l0,21.55038c0,0.88296 -0.18516,1.62169 -0.55527,2.21618c-0.37011,0.59449 -0.83841,0.89156 -1.4045,0.89156c-0.56609,0 -1.03439,-0.29709 -1.4045,-0.89156l-0.16964,-0.30919c-0.20557,-0.42827 -0.32908,-0.92085 -0.37011,-1.47745l-0.01347,-0.37859l-0.15882,0.26587c-0.23517,0.37286 -0.50954,0.74286 -0.8231,1.10968c-0.5226,0.61137 -1.13769,1.12942 -1.84545,1.55387l0,0.00004zm-1.81279,-4.96729c-0.9364,0 -1.76379,-0.37351 -2.48237,-1.12083c-0.71858,-0.74732 -1.27936,-1.76626 -1.68213,-3.0568c-0.40277,-1.29054 -0.60426,-2.73423 -0.60426,-4.33045c0,-1.63029 0.20149,-3.09086 0.60426,-4.3814c0.40277,-1.29062 0.96355,-2.30956 1.68213,-3.0568c0.71858,-0.74723 1.54597,-1.12083 2.48237,-1.12083c0.95804,0 1.79645,0.37359 2.51504,1.12083c0.71858,0.74723 1.27936,1.76615 1.68213,3.0568c0.40277,1.29054 0.60426,2.75111 0.60426,4.3814c0,1.59622 -0.20149,3.03992 -0.60426,4.33045c-0.40277,1.29054 -0.96355,2.30947 -1.68213,3.0568c-0.71858,0.74732 -1.55699,1.12083 -2.51504,1.12083zm29.69049,5.60411c1.08869,0 2.14493,-0.28021 3.16829,-0.84061c1.02337,-0.5604 1.8183,-1.21412 2.38438,-1.96144c0.60977,-0.74732 0.91456,-1.57934 0.91456,-2.49637c0,-0.67919 -0.1578,-1.27366 -0.47361,-1.78314c-0.31581,-0.50946 -0.71307,-0.7642 -1.19219,-0.7642c-0.34847,0 -0.71858,0.15283 -1.11054,0.45851c-0.23946,0.2038 -0.50627,0.44992 -0.80024,0.73873c-0.29397,0.28881 -0.68041,0.53493 -1.15953,0.73873c-0.47912,0.2038 -1.12135,0.30568 -1.92711,0.30568c-0.87108,0 -1.69295,-0.33116 -2.46604,-0.99347c-0.77309,-0.66231 -1.4045,-1.63029 -1.89444,-2.90394c-0.27988,-0.72789 -0.47994,-1.54719 -0.59997,-2.45784l-0.00837,-0.064l10.78281,0c0.41808,0 0.79432,-0.16302 1.12891,-0.48909l0.24293,-0.2751c0.39195,-0.50946 0.59875,-1.17177 0.62059,-1.98691c0,-1.83408 -0.22313,-3.56625 -0.66959,-5.19654c-0.44646,-1.63029 -1.05072,-3.0653 -1.81279,-4.30498c-0.76206,-1.23968 -1.63865,-2.21618 -2.62936,-2.92941c-0.9907,-0.71326 -2.04142,-1.06988 -3.15196,-1.06988c-1.43716,0 -2.79818,0.57739 -4.08285,1.73217c-1.28467,1.1548 -2.32457,2.81056 -3.1193,4.96729c-0.79473,2.15662 -1.19219,4.7635 -1.19219,7.82029c0,2.61516 0.3648,4.9587 1.0942,7.03062c0.7294,2.07192 1.77461,3.71049 3.13563,4.91635c1.36102,1.20584 2.9668,1.80861 4.81776,1.80861l0,-0.00004zm-5.1301,-17.11804l8.55969,0l0,-0.35663c-0.04348,-0.98485 -0.26681,-1.86815 -0.66959,-2.64922c-0.40277,-0.78117 -0.90374,-1.40104 -1.50249,-1.85955c-0.59875,-0.45851 -1.23567,-0.68778 -1.91077,-0.68778c-0.65326,0 -1.26303,0.13586 -1.82912,0.40757c-0.56609,0.27171 -1.05603,0.73022 -1.46983,1.37557c-0.4138,0.64532 -0.74042,1.51152 -0.97988,2.59828l-0.10983,0.56742l-0.08819,0.60435z" clip-rule="evenodd" fill-rule="evenodd" id="svg_6"/>
     <path stroke="null" fill="#ACD9B2" d="m51.71414,52.08945c0.46953,0 0.88292,-0.27861 1.24017,-0.83584c0.35725,-0.55723 0.53587,-1.24978 0.53587,-2.07765l0,-11.64129l6.39987,-14.29369c0.08166,-0.19105 0.14739,-0.38563 0.19741,-0.58374l0.06288,-0.29984c0.05104,-0.30249 0.07655,-0.59702 0.07655,-0.88361c0,-0.85971 -0.18883,-1.56819 -0.5665,-2.12542c-0.37766,-0.55723 -0.80126,-0.83584 -1.27079,-0.83584c-0.59201,0 -1.10237,0.47761 -1.53107,1.43286l-5.04844,11.52028l-5.39344,-11.61582c-0.36746,-0.7642 -0.78738,-1.20088 -1.25976,-1.31006l-0.24068,-0.02729c-0.44911,0 -0.88802,0.27066 -1.31672,0.81197c-0.4287,0.5413 -0.64305,1.24181 -0.64305,2.10155c0,0.31841 0.04083,0.66866 0.12249,1.05076c0.08166,0.3821 0.22456,0.78012 0.4287,1.19407l6.36925,13.20471l0,12.3004c0,0.69 0.12412,1.28576 0.37215,1.78791l0.16372,0.28976c0.35725,0.55723 0.79105,0.83584 1.30141,0.83584l0,-0.00002z" id="svg_5"/>
     <path stroke="null" fill="#ACD9B2" d="m78.33922,51.56407c-0.35725,0.50946 -0.75022,0.7642 -1.17892,0.7642c-0.36746,0 -0.69919,-0.17513 -0.99519,-0.52538l-0.20945,-0.28656c-0.1972,-0.31046 -0.35705,-0.69256 -0.47953,-1.1463l-1.59027,-5.77924l-9.13129,0l-1.58823,5.82701c-0.1429,0.60499 -0.36235,1.07466 -0.65836,1.40899c-0.29601,0.33433 -0.61753,0.50151 -0.96457,0.50151c-0.55118,0 -0.95947,-0.23882 -1.22485,-0.71643c-0.26539,-0.47761 -0.39808,-1.06669 -0.39808,-1.76722c0,-0.28656 0.03062,-0.58907 0.09186,-0.90748l7.62472,-28.5619c0.16331,-0.63684 0.41339,-1.13038 0.75022,-1.48063c0.33684,-0.35025 0.69919,-0.49354 1.08706,-0.42987c0.36746,0 0.7094,0.16718 1.02582,0.50151c0.31642,0.33433 0.54608,0.80399 0.68898,1.40899l7.53286,27.98875c0.10207,0.41394 0.15311,0.79604 0.15311,1.1463c0,0.85971 -0.17862,1.54432 -0.53587,2.05378l0,-0.00002zm-12.08626,-12.46598l6.12223,0l-3.07643,-11.17957l-3.04581,11.17957z" clip-rule="evenodd" fill-rule="evenodd" id="svg_4"/>
    </g>
    <rect stroke="#000" id="svg_2" height="40.25109" width="154.89355" y="13.91219" x="41.98712" fill="#fff"/>
    <text stroke="#000" xml:space="preserve" text-anchor="start" font-family="Noto Sans JP" font-size="12" id="svg_1" y="15.30532" x="23.94458" stroke-width="0" fill="#001782" transform="matrix(2.26223 0 0 2.13255 -7.76032 7.66385)">Carrete-Shop</text>
   </g>
  </g>
 </g>

</svg>